<svg xmlns="http://www.w3.org/2000/svg" version="1.1" xmlns:xlink="http://www.w3.org/1999/xlink" xmlns:svgjs="http://svgjs.dev/svgjs" width="2000" height="545" viewBox="0 0 2000 545"><g transform="matrix(1,0,0,1,-1.2121212121212466,-0.04049555407090111)"><svg viewBox="0 0 396 108" data-background-color="#ffffff" preserveAspectRatio="xMidYMid meet" height="545" width="2000" xmlns="http://www.w3.org/2000/svg" xmlns:xlink="http://www.w3.org/1999/xlink"><g id="tight-bounds" transform="matrix(1,0,0,1,0.2400000000000091,0.008024807045245552)"><svg viewBox="0 0 395.52 107.63618094441814" height="107.63618094441814" width="395.52"><g><svg viewBox="0 0 684.348818462056 186.23759418760272" height="107.63618094441814" width="395.52"><g><rect width="12.160433438765537" height="186.23759418760272" x="244.83478963385184" y="0" fill="#636365" opacity="1" stroke-width="0" stroke="transparent" fill-opacity="1" class="rect-yte-0" data-fill-palette-color="primary" rx="1%" id="yte-0" data-palette-color="#636365"></rect></g><g transform="matrix(1,0,0,1,288.82881846205595,0.4632775974815928)"><svg viewBox="0 0 395.52 185.31103899263954" height="185.31103899263954" width="395.52"><g id="textblocktransform"><svg viewBox="0 0 395.52 185.31103899263954" height="185.31103899263954" width="395.52" id="textblock"><g><svg viewBox="0 0 395.52 134.84469149527516" height="134.84469149527516" width="395.52"><g transform="matrix(1,0,0,1,0,0)"><svg width="395.52" viewBox="1.1 -31.55 134.905 46" height="134.84469149527516" data-palette-color="#636365"><path d="M8.75 3.35L8.75 3.35Q4.95 3.5 3.03 1.8 1.1 0.1 1.1-3.1L1.1-3.1Q1.1-5.05 1.95-7.9L1.95-7.9Q4.3-15.1 8.55-20.5L8.55-20.5Q11.4-24.1 14.55-26.55 17.7-29 20.8-30.28 23.9-31.55 26.6-31.55L26.6-31.55Q26.85-31.55 27.2-31.53 27.55-31.5 28-31.45L28-31.45Q29.65-31.2 30.93-30 32.2-28.8 32.2-27L32.2-27Q32.2-26.05 31.8-25L31.8-25Q31.3-23.6 29.3-21.4L29.3-21.4Q27.35-19.2 24.43-17.23 21.5-15.25 18.3-14.35L18.3-14.35Q17.3-14.1 16.85-14.1L16.85-14.1Q15.1-14.1 15.1-15.7L15.1-15.7Q15.1-17.65 17.7-20.85L17.7-20.85Q18.4-21.8 18.95-21.8L18.95-21.8Q19.25-21.75 19.25-21.35L19.25-21.35Q19.2-21.05 18.7-20.4L18.7-20.4Q16.85-17.95 16.85-16.4L16.85-16.4Q16.85-15.8 17.18-15.5 17.5-15.2 18-15.3L18-15.3Q20.9-15.9 23.2-17.4 25.5-18.9 27.18-21.03 28.85-23.15 29.75-25.5L29.75-25.5Q30.15-26.55 30.15-27.4L30.15-27.4Q30.15-28.65 29.33-29.33 28.5-30 27.25-30L27.25-30Q24.15-30 19.3-26.8L19.3-26.8Q16-24.65 12.9-21.6 9.8-18.55 7.43-15.03 5.05-11.5 3.9-7.9L3.9-7.9Q3.2-5.7 3.2-3.8L3.2-3.8Q3.2-1.1 4.67 0.38 6.15 1.85 8.8 1.85L8.8 1.85Q11.7 1.85 15.75-0.5L15.75-0.5Q18.3-2 20.8-3.95 23.3-5.9 25.48-8.05 27.65-10.2 29.15-12.2L29.15-12.2Q29.55-12.6 29.8-12.6L29.8-12.6Q29.95-12.6 29.95-12.4L29.95-12.4Q29.95-11.9 29.55-11.35L29.55-11.35Q28.35-9.75 26.83-8.13 25.3-6.5 23.4-4.8L23.4-4.8Q20.9-2.55 18.25-0.73 15.6 1.1 13.15 2.18 10.7 3.25 8.75 3.35ZM27.65 1.05L27.65 1.05Q27 1.05 27-0.1L27-0.1Q27-1.05 27.45-1.95L27.45-1.95Q28.6-4.15 29.55-6.3L29.55-6.3Q30.2-7.6 30.77-8.8 31.35-10 31.85-11L31.85-11Q32.15-11.3 32.45-11.3L32.45-11.3Q33.1-11.3 32.85-10.7L32.85-10.7Q32.75-10.35 32.57-9.88 32.4-9.4 32.15-8.75L32.15-8.75Q31.35-6.65 31.2-5.8L31.2-5.8Q32.6-7.05 34.07-8.13 35.55-9.2 36.85-9.9 38.15-10.6 39.05-10.6L39.05-10.6Q39.85-10.6 39.85-9.95L39.85-9.95Q39.85-9.4 39.35-8.78 38.85-8.15 38.35-8.15L38.35-8.15Q38.1-8.15 37.95-8.3L37.95-8.3Q37.8-8.35 37.35-8.35L37.35-8.35Q35.75-8.35 34-6.8L34-6.8Q32.15-5.25 30.65-3.08 29.15-0.9 28.45 0.7L28.45 0.7Q28.1 1.05 27.65 1.05ZM42.64-10.95L42.64-10.95Q41.99-10.95 41.99-11.25L41.99-11.25Q41.99-11.5 42.37-11.98 42.74-12.45 43.24-12.8L43.24-12.8Q44.34-13.5 44.97-14 45.59-14.5 46.49-15.7L46.49-15.7Q46.55-15.6 46.55-15.3L46.55-15.3Q46.55-14.65 46.02-13.73 45.49-12.8 44.84-12.05 44.2-11.3 43.7-11.1L43.7-11.1Q43.24-10.95 42.64-10.95ZM38.2 1.3L38.2 1.3Q37.8 1.3 37.45 1 37.09 0.7 37.09 0.2L37.09 0.2Q37.09-0.85 38.55-3.65L38.55-3.65 39.09-4.75Q39.2-4.85 39.37-5.25 39.55-5.65 39.89-6.3L39.89-6.3Q40.24-7 40.45-7.55 40.64-8.1 40.74-8.6L40.74-8.6Q40.74-8.65 40.95-8.8 41.14-8.95 41.34-9.05L41.34-9.05 41.64-9.1Q42.05-9.1 42.32-8.95 42.59-8.8 42.49-8.55L42.49-8.55Q42.14-7.8 41.89-7.25 41.64-6.7 41.49-6.3L41.49-6.3 41.45-6.3Q40.89-5.05 40.52-3.93 40.14-2.8 40.2-1.8L40.2-1.8 40.24-0.45Q40.2 0.05 39.89 0.4L39.89 0.4Q39.7 0.55 39.34 0.78 38.99 1 38.45 1.25L38.45 1.25Q38.39 1.3 38.2 1.3ZM41.64 2.1L41.64 2.1Q40.84 2.1 40.24 1.95L40.24 1.95Q39.69 1.8 39.69 1.55L39.69 1.55Q39.69 1.15 40.49 1.1L40.49 1.1Q41.24 1.05 41.49 0.95L41.49 0.95Q41.94 0.85 42.54 0.8L42.54 0.8Q43.09 0.7 43.44 0.65L43.44 0.65Q45.84-0.05 45.84-1.5L45.84-1.5Q45.84-2.5 44.79-4.05L44.79-4.05Q44.14-5 44.14-6.15L44.14-6.15Q44.14-7.55 45.02-8.9 45.89-10.25 47.22-11.28 48.54-12.3 49.89-12.65L49.89-12.65Q50.49-12.8 51.14-12.8L51.14-12.8Q52.19-12.8 52.64-12.3L52.64-12.3Q52.94-12 52.94-11L52.94-11Q52.94-10.25 52.69-9.47 52.44-8.7 51.99-8.2L51.99-8.2Q51.74-7.95 51.59-7.95L51.59-7.95Q51.34-7.95 51.34-8.65L51.34-8.65 51.39-9.65Q51.44-10.05 51.47-10.35 51.49-10.65 51.49-10.85L51.49-10.85Q51.49-11.7 51.14-11.85L51.14-11.85Q50.74-11.95 50.59-11.95L50.59-11.95Q49.54-11.95 48.34-11 47.14-10.05 46.39-8.8L46.39-8.8Q46.09-8.35 46.09-7.7L46.09-7.7Q46.09-6.9 46.52-5.83 46.94-4.75 47.14-4.25L47.14-4.25Q47.64-3.15 47.92-2.35 48.19-1.55 48.19-0.95L48.19-0.95Q48.19-0.65 48.14-0.5L48.14-0.5Q48.39-0.6 49.34-0.8L49.34-0.8Q50.19-1 50.79-1L50.79-1Q51.14-1 51.14-0.85L51.14-0.85Q51.14-0.8 50.84-0.5L50.84-0.5Q50.69-0.35 49.92-0.03 49.14 0.3 48.12 0.65 47.09 1 46.09 1.3 45.09 1.6 44.39 1.75L44.39 1.75Q43.19 2.1 41.64 2.1ZM45.19 14.45L45.19 14.45Q44.69 14.45 44.49 14.35L44.49 14.35Q44.34 14.2 44.19 14 44.04 13.8 44.04 13.65L44.04 13.65Q44.14 11.5 45.39 8.75 46.64 6 48.67 3 50.69 0 52.99-2.75L52.99-2.75Q55.04-5.25 55.84-6.5L55.84-6.5Q56.49-7.6 57.37-9.73 58.24-11.85 59.34-14.95L59.34-14.95Q59.44-15.25 60.09-15.35L60.09-15.35Q60.89-15.35 60.89-14.15L60.89-14.15Q60.89-13.5 60.74-13.2L60.74-13.2Q60.69-12.95 60.62-12.73 60.54-12.5 60.49-12.4L60.49-12.4Q60.34-12.1 60.34-12L60.34-12Q60.34-12 60.39-11.85 60.44-11.7 60.49-11.45L60.49-11.45Q62.14-12.25 63.39-12.73 64.64-13.2 65.79-13.2L65.79-13.2Q67.14-13.2 67.64-12.3L67.64-12.3Q67.79-12 67.79-11.55L67.79-11.55Q67.79-10.45 66.94-8.78 66.09-7.1 64.77-5.33 63.44-3.55 61.89-2.15L61.89-2.15Q61.34-1.65 60.32-1.05 59.29-0.45 58.12 0.08 56.94 0.6 55.87 0.95 54.79 1.3 54.19 1.3L54.19 1.3Q53.54 2.65 52.89 3.93 52.24 5.2 51.54 6.4L51.54 6.4Q48.34 12.1 45.84 14.35L45.84 14.35Q45.74 14.45 45.19 14.45ZM56.14-2.75L55.24-0.85Q57.59-1.25 60.24-2.9L60.24-2.9Q62.89-4.55 64.64-6.85 66.39-9.15 66.24-11.45L66.24-11.45Q65.94-12.35 64.99-12.35L64.99-12.35Q64.34-12.35 63.37-11.9 62.39-11.45 61.39-10.75 60.39-10.05 59.62-9.35 58.84-8.65 58.54-8.15L58.54-8.15Q58.29-7.8 57.94-6.9L57.94-6.9Q57.74-6.5 57.64-6.2 57.54-5.9 57.49-5.8L57.49-5.8Q57.24-5.15 56.89-4.38 56.54-3.6 56.14-2.75L56.14-2.75ZM45.79 11.5L45.79 11.5Q45.79 11.7 45.89 11.7L45.89 11.7Q46.14 11.7 46.79 10.95L46.79 10.95Q47.84 9.85 48.39 8.95L48.39 8.95Q49.39 7.35 50.27 5.75 51.14 4.15 51.94 2.55L51.94 2.55Q53.59-0.65 53.34-1.35L53.34-1.35Q52.59-0.6 51.57 0.83 50.54 2.25 49.47 4 48.39 5.75 47.47 7.48 46.54 9.2 46.04 10.55L46.04 10.55Q45.79 11.4 45.79 11.5ZM82.69 3.35L82.69 3.35Q78.89 3.5 76.96 1.8 75.04 0.1 75.04-3.1L75.04-3.1Q75.04-5.05 75.89-7.9L75.89-7.9Q78.24-15.1 82.49-20.5L82.49-20.5Q85.34-24.1 88.49-26.55 91.64-29 94.74-30.28 97.84-31.55 100.54-31.55L100.54-31.55Q100.79-31.55 101.14-31.53 101.49-31.5 101.94-31.45L101.94-31.45Q103.59-31.2 104.86-30 106.14-28.8 106.14-27L106.14-27Q106.14-26.05 105.74-25L105.74-25Q105.24-23.6 103.24-21.4L103.24-21.4Q101.29-19.2 98.36-17.23 95.44-15.25 92.24-14.35L92.24-14.35Q91.24-14.1 90.79-14.1L90.79-14.1Q89.04-14.1 89.04-15.7L89.04-15.7Q89.04-17.65 91.64-20.85L91.64-20.85Q92.34-21.8 92.89-21.8L92.89-21.8Q93.19-21.75 93.19-21.35L93.19-21.35Q93.14-21.05 92.64-20.4L92.64-20.4Q90.79-17.95 90.79-16.4L90.79-16.4Q90.79-15.8 91.11-15.5 91.44-15.2 91.94-15.3L91.94-15.3Q94.84-15.9 97.14-17.4 99.44-18.9 101.11-21.03 102.79-23.15 103.69-25.5L103.69-25.5Q104.09-26.55 104.09-27.4L104.09-27.4Q104.09-28.65 103.26-29.33 102.44-30 101.19-30L101.19-30Q98.09-30 93.24-26.8L93.24-26.8Q89.94-24.65 86.84-21.6 83.74-18.55 81.36-15.03 78.99-11.5 77.84-7.9L77.84-7.9Q77.14-5.7 77.14-3.8L77.14-3.8Q77.14-1.1 78.61 0.38 80.09 1.85 82.74 1.85L82.74 1.85Q85.64 1.85 89.69-0.5L89.69-0.5Q92.24-2 94.74-3.95 97.24-5.9 99.41-8.05 101.59-10.2 103.09-12.2L103.09-12.2Q103.49-12.6 103.74-12.6L103.74-12.6Q103.89-12.6 103.89-12.4L103.89-12.4Q103.89-11.9 103.49-11.35L103.49-11.35Q102.29-9.75 100.76-8.13 99.24-6.5 97.34-4.8L97.34-4.8Q94.84-2.55 92.19-0.73 89.54 1.1 87.09 2.18 84.64 3.25 82.69 3.35ZM109.48 1.35L109.48 1.35Q109.38 1.35 109.28 1.33 109.18 1.3 109.08 1.25L109.08 1.25Q108.38 0.9 108.18 0.25 107.98-0.4 108.08-1.4L108.08-1.4Q108.18-1.8 108.31-2.8 108.43-3.8 108.63-4.4L108.63-4.4 106.08-1.95 104.68-0.6Q103.23 0.85 102.28 0.85L102.28 0.85Q101.88 0.85 101.63 0.55L101.63 0.55Q101.18 0 101.18-0.8L101.18-0.8Q101.18-1.85 101.73-3.05 102.28-4.25 103.03-5.38 103.78-6.5 104.38-7.25L104.38-7.25Q105.88-9.1 107.31-10.15 108.73-11.2 110.28-11.2L110.28-11.2Q111.13-11.2 111.96-10.9 112.78-10.6 113.48-9.9L113.48-9.9 113.53-9.85Q113.53-9.7 113.28-9.55L113.28-9.55Q113.18-9.45 113.11-9.4 113.03-9.35 112.98-9.3L112.98-9.3Q112.38-8.7 111.63-7.3 110.88-5.9 110.33-4.38 109.78-2.85 109.78-1.75L109.78-1.75Q109.78-0.75 110.28-0.4L110.28-0.4Q110.53-0.25 110.83-0.25L110.83-0.25Q111.48-0.25 112.63-1.05L112.63-1.05Q112.68-1.1 112.86-1.23 113.03-1.35 113.38-1.6L113.38-1.6Q113.78-1.9 114.03-1.9L114.03-1.9Q114.28-1.9 114.28-1.7L114.28-1.7Q114.28-1.4 113.88-1L113.88-1Q113.58-0.75 113.21-0.45 112.83-0.15 112.33 0.15L112.33 0.15Q111.58 0.7 110.78 1.03 109.98 1.35 109.48 1.35ZM103.83-1.85L103.83-1.85Q104.88-1.85 107.73-4.95L107.73-4.95Q108.48-5.8 109.08-6.58 109.68-7.35 110.18-8.1L110.18-8.1Q111.08-9.55 110.78-10.1L110.78-10.1Q110.63-10.4 110.18-10.4L110.18-10.4Q109.63-10.4 108.68-9.83 107.73-9.25 106.76-8.35 105.78-7.45 104.98-6.55L104.98-6.55Q104.43-5.85 103.88-4.6 103.33-3.35 103.33-2.55L103.33-2.55Q103.33-1.85 103.83-1.85ZM116.18 1.05L116.18 1.05Q115.53 1.05 115.53-0.1L115.53-0.1Q115.53-1.05 115.98-1.95L115.98-1.95Q117.13-4.15 118.08-6.3L118.08-6.3Q118.73-7.6 119.31-8.8 119.88-10 120.38-11L120.38-11Q120.68-11.3 120.98-11.3L120.98-11.3Q121.63-11.3 121.38-10.7L121.38-10.7Q121.28-10.35 121.11-9.88 120.93-9.4 120.68-8.75L120.68-8.75Q119.88-6.65 119.73-5.8L119.73-5.8Q121.13-7.05 122.61-8.13 124.08-9.2 125.38-9.9 126.68-10.6 127.58-10.6L127.58-10.6Q128.38-10.6 128.38-9.95L128.38-9.95Q128.38-9.4 127.88-8.78 127.38-8.15 126.88-8.15L126.88-8.15Q126.63-8.15 126.48-8.3L126.48-8.3Q126.33-8.35 125.88-8.35L125.88-8.35Q124.28-8.35 122.53-6.8L122.53-6.8Q120.68-5.25 119.18-3.08 117.68-0.9 116.98 0.7L116.98 0.7Q116.63 1.05 116.18 1.05ZM128.88 0.55L128.88 0.55Q127.83 0.55 127.03 0L127.03 0Q125.73-1 125.73-3L125.73-3Q125.73-5 127.13-7.25 128.53-9.5 131.38-11.4L131.38-11.4Q131.88-11.75 132.73-11.75L132.73-11.75Q133.83-11.75 134.7-11.15 135.58-10.55 135.38-9.6L135.38-9.6Q135.03-8.05 133.85-6.85 132.68-5.65 131.1-4.73 129.53-3.8 127.88-2.95L127.88-2.95Q127.83-2.8 127.8-2.65 127.78-2.5 127.78-2.35L127.78-2.35Q127.78-1.65 128.25-1.13 128.73-0.6 129.58-0.6L129.58-0.6Q130.23-0.6 130.68-0.8L130.68-0.8Q131.48-1.1 132-1.35 132.53-1.6 133.23-2.1 133.93-2.6 135.13-3.6L135.13-3.6Q135.68-4 135.78-4L135.78-4Q136.08-4 135.98-3.55L135.98-3.55Q135.48-2.75 134.25-1.8 133.03-0.85 131.55-0.15 130.08 0.55 128.88 0.55ZM128.18-4.3L128.18-4.3Q128.58-4.3 129.83-5.1 131.08-5.9 132.18-6.85L132.18-6.85Q134.08-8.6 134.08-9.55L134.08-9.55Q134.08-9.8 133.93-10L133.93-10Q133.78-10.25 133.48-10.25L133.48-10.25Q132.53-10.25 130.28-8L130.28-8Q128.73-6.5 128.18-4.3Z" opacity="1" transform="matrix(1,0,0,1,0,0)" fill="#636365" class="wordmark-text-0" data-fill-palette-color="primary" id="text-0"></path></svg></g></svg></g><g transform="matrix(1,0,0,1,0,166.67828688471374)"><svg viewBox="0 0 375.74399999999997 18.6327521079258" height="18.6327521079258" width="375.74399999999997"><g transform="matrix(1,0,0,1,0,0)"><svg width="375.74399999999997" viewBox="1.1 -36.35 948.6999999999999 47.05" height="18.6327521079258" data-palette-color="#636365"><path d="M45.6-35.8L36.55 0 31.55 0 23.3-29.4 15.25 0 10.25 0 1.1-35.8 6.2-35.8 12.95-6.75 20.9-35.8 25.8-35.8 33.95-6.75 40.55-35.8 45.6-35.8ZM49.8 0L49.8-35.8 53.85-35.8 53.85-22.1Q55.7-24.4 57.55-25.33 59.4-26.25 62.15-26.25L62.15-26.25Q65.9-26.25 68.05-24.38 70.2-22.5 70.2-19.25L70.2-19.25 70.2 0 66.15 0 66.15-17.6Q66.15-20.3 64.5-21.55L64.5-21.55Q62.95-22.7 60.85-22.7L60.85-22.7Q57.7-22.7 55.77-20.35 53.85-18 53.85-14.1L53.85-14.1 53.85 0 49.8 0ZM98.8-11.8L98.8-11.65 79.85-11.65Q79.9-8.35 81.25-6.4L81.25-6.4Q83.4-3.25 87.45-3.25L87.45-3.25Q92.45-3.25 94.2-8L94.2-8 98.3-8Q97.5-3.95 94.6-1.7 91.7 0.55 87.3 0.55L87.3 0.55Q81.45 0.55 78.35-3.45L78.35-3.45Q75.6-6.95 75.6-12.7L75.6-12.7Q75.6-19.35 79.2-23.05L79.2-23.05Q82.35-26.25 87.35-26.25L87.35-26.25Q91-26.25 93.77-24.5 96.55-22.75 97.75-19.7L97.75-19.7Q98.8-17.1 98.8-11.8L98.8-11.8ZM80-15L94.4-15Q94.4-18.35 92.42-20.43 90.45-22.5 87.35-22.5L87.35-22.5Q84.2-22.5 82.22-20.48 80.25-18.45 80-15L80-15ZM104.34 0L104.34-25.7 108.14-25.7 108.14-21Q110.39-26.3 115.24-26.3L115.24-26.3Q115.84-26.3 116.69-26.15L116.69-26.15 116.69-21.95Q112.69-21.9 111.19-20.8L111.19-20.8Q108.44-18.8 108.44-13.35L108.44-13.35 108.44 0 104.34 0ZM142.44-11.8L142.44-11.65 123.49-11.65Q123.54-8.35 124.89-6.4L124.89-6.4Q127.04-3.25 131.09-3.25L131.09-3.25Q136.09-3.25 137.84-8L137.84-8 141.94-8Q141.14-3.95 138.24-1.7 135.34 0.55 130.94 0.55L130.94 0.55Q125.09 0.55 121.99-3.45L121.99-3.45Q119.24-6.95 119.24-12.7L119.24-12.7Q119.24-19.35 122.84-23.05L122.84-23.05Q125.99-26.25 130.99-26.25L130.99-26.25Q134.64-26.25 137.42-24.5 140.19-22.75 141.39-19.7L141.39-19.7Q142.44-17.1 142.44-11.8L142.44-11.8ZM123.64-15L138.04-15Q138.04-18.35 136.07-20.43 134.09-22.5 130.99-22.5L130.99-22.5Q127.84-22.5 125.87-20.48 123.89-18.45 123.64-15L123.64-15ZM186.29-24.85L186.29-24.85 181.59-24.85Q180.84-28.45 178.99-30.1L178.99-30.1Q176.59-32.3 171.99-32.3L171.99-32.3Q166.39-32.3 163.34-27.9L163.34-27.9Q160.69-24.05 160.69-17.8L160.69-17.8Q160.69-10.75 164.24-6.85L164.24-6.85Q167.39-3.5 172.34-3.5L172.34-3.5Q178.39-3.5 180.69-7.95L180.69-7.95Q181.74-10 182.34-13.4L182.34-13.4 187.04-13.4Q185.39 0.55 172.39 0.55L172.39 0.55Q165.39 0.55 161.34-3.55L161.34-3.55Q156.14-8.8 156.14-17.65L156.14-17.65Q156.14-26.25 161.14-31.8L161.14-31.8Q165.24-36.35 172.44-36.35L172.44-36.35Q184.14-36.35 186.29-24.85ZM192.58-35.8L196.68-35.8 196.68 0 192.58 0 192.58-35.8ZM225.28-11.8L225.28-11.65 206.33-11.65Q206.38-8.35 207.73-6.4L207.73-6.4Q209.88-3.25 213.93-3.25L213.93-3.25Q218.93-3.25 220.68-8L220.68-8 224.78-8Q223.98-3.95 221.08-1.7 218.18 0.55 213.78 0.55L213.78 0.55Q207.93 0.55 204.83-3.45L204.83-3.45Q202.08-6.95 202.08-12.7L202.08-12.7Q202.08-19.35 205.68-23.05L205.68-23.05Q208.83-26.25 213.83-26.25L213.83-26.25Q217.48-26.25 220.26-24.5 223.03-22.75 224.23-19.7L224.23-19.7Q225.28-17.1 225.28-11.8L225.28-11.8ZM206.48-15L220.88-15Q220.88-18.35 218.91-20.43 216.93-22.5 213.83-22.5L213.83-22.5Q210.68-22.5 208.71-20.48 206.73-18.45 206.48-15L206.48-15ZM253.68-3.45L253.68-3.45 253.68-0.15Q251.98 0.45 251.03 0.45L251.03 0.45Q247.03 0.45 246.68-3.2L246.68-3.2Q243.93 0.55 237.93 0.55L237.93 0.55Q233.78 0.55 231.48-1.75L231.48-1.75Q229.48-3.75 229.48-6.9L229.48-6.9Q229.48-10.5 232.03-12.45L232.03-12.45Q233.48-13.55 238.08-14.6L238.08-14.6 246.48-16.5 246.53-18.65Q246.53-22.5 240.73-22.5L240.73-22.5Q235.18-22.5 234.78-18L234.78-18 230.63-18Q230.78-21.4 232.33-23.2L232.33-23.2Q234.98-26.25 240.93-26.25L240.93-26.25Q250.58-26.25 250.58-19.25L250.58-19.25 250.58-4.9Q250.58-3 252.23-3L252.23-3Q252.43-3 253.28-3.3L253.28-3.3Q253.58-3.4 253.68-3.45ZM246.53-8.65L246.53-13.15 239.93-11.45Q236.38-10.55 235.05-9.6 233.73-8.65 233.73-6.95L233.73-6.95Q233.73-3 238.83-3L238.83-3Q242.43-3 244.93-5.35L244.93-5.35Q246.53-6.8 246.53-8.65L246.53-8.65ZM258.18 0L258.18-25.7 261.98-25.7 261.98-21.35Q265.08-26.25 270.48-26.25L270.48-26.25Q274.23-26.25 276.43-24.38 278.63-22.5 278.63-19.35L278.63-19.35 278.63 0 274.58 0 274.58-17.7Q274.58-20 273.15-21.35 271.73-22.7 269.28-22.7L269.28-22.7Q266.08-22.7 264.18-20.35 262.28-18 262.28-14.1L262.28-14.1 262.28 0 258.18 0ZM285.37-35.8L289.47-35.8 289.47 0 285.37 0 285.37-35.8ZM296.17-25.7L300.22-25.7 300.22 0 296.17 0 296.17-25.7ZM298.27-35.75L298.27-35.75Q299.32-35.75 300.05-35.02 300.77-34.3 300.77-33.3L300.77-33.3Q300.77-32.25 300.05-31.53 299.32-30.8 298.27-30.8L298.27-30.8Q297.27-30.8 296.55-31.53 295.82-32.25 295.82-33.3L295.82-33.3Q295.82-34.3 296.55-35.02 297.27-35.75 298.27-35.75ZM307.27 0L307.27-25.7 311.07-25.7 311.07-21.35Q314.17-26.25 319.57-26.25L319.57-26.25Q323.32-26.25 325.52-24.38 327.72-22.5 327.72-19.35L327.72-19.35 327.72 0 323.67 0 323.67-17.7Q323.67-20 322.24-21.35 320.82-22.7 318.37-22.7L318.37-22.7Q315.17-22.7 313.27-20.35 311.37-18 311.37-14.1L311.37-14.1 311.37 0 307.27 0ZM356.26-11.8L356.26-11.65 337.31-11.65Q337.37-8.35 338.72-6.4L338.72-6.4Q340.87-3.25 344.92-3.25L344.92-3.25Q349.92-3.25 351.67-8L351.67-8 355.76-8Q354.97-3.95 352.06-1.7 349.17 0.55 344.76 0.55L344.76 0.55Q338.92 0.55 335.81-3.45L335.81-3.45Q333.06-6.95 333.06-12.7L333.06-12.7Q333.06-19.35 336.67-23.05L336.67-23.05Q339.81-26.25 344.81-26.25L344.81-26.25Q348.47-26.25 351.24-24.5 354.01-22.75 355.22-19.7L355.22-19.7Q356.26-17.1 356.26-11.8L356.26-11.8ZM337.47-15L351.87-15Q351.87-18.35 349.89-20.43 347.92-22.5 344.81-22.5L344.81-22.5Q341.67-22.5 339.69-20.48 337.72-18.45 337.47-15L337.47-15ZM380.11-18.65L380.11-18.65 375.61-18.65Q375.41-22.5 370.46-22.5L370.46-22.5Q367.91-22.5 366.44-21.53 364.96-20.55 364.96-18.9L364.96-18.9Q364.96-16.4 369.71-15.3L369.71-15.3 373.66-14.4Q377.51-13.5 379.21-11.85 380.91-10.2 380.91-7.35L380.91-7.35Q380.91-3.7 378.06-1.58 375.21 0.55 370.36 0.55L370.36 0.55Q365.06 0.55 362.31-1.95L362.31-1.95Q360.01-4 359.86-7.4L359.86-7.4 364.51-7.4Q364.91-5.65 365.61-4.85L365.61-4.85Q366.96-3.25 370.66-3.25L370.66-3.25Q373.41-3.25 375.04-4.28 376.66-5.3 376.66-7L376.66-7Q376.66-9.55 372.71-10.5L372.71-10.5 368.86-11.4Q364.46-12.45 362.71-13.9L362.71-13.9Q360.71-15.55 360.71-18.65L360.71-18.65Q360.71-22.15 363.39-24.2 366.06-26.25 370.56-26.25L370.56-26.25Q375.26-26.25 377.86-23.9L377.86-23.9Q380.11-21.85 380.11-18.65ZM404.66-18.65L404.66-18.65 400.16-18.65Q399.96-22.5 395.01-22.5L395.01-22.5Q392.46-22.5 390.99-21.53 389.51-20.55 389.51-18.9L389.51-18.9Q389.51-16.4 394.26-15.3L394.26-15.3 398.21-14.4Q402.06-13.5 403.76-11.85 405.46-10.2 405.46-7.35L405.46-7.35Q405.46-3.7 402.61-1.58 399.76 0.55 394.91 0.55L394.91 0.55Q389.61 0.55 386.86-1.95L386.86-1.95Q384.56-4 384.41-7.4L384.41-7.4 389.06-7.4Q389.46-5.65 390.16-4.85L390.16-4.85Q391.51-3.25 395.21-3.25L395.21-3.25Q397.96-3.25 399.59-4.28 401.21-5.3 401.21-7L401.21-7Q401.21-9.55 397.26-10.5L397.26-10.5 393.41-11.4Q389.01-12.45 387.26-13.9L387.26-13.9Q385.26-15.55 385.26-18.65L385.26-18.65Q385.26-22.15 387.94-24.2 390.61-26.25 395.11-26.25L395.11-26.25Q399.81-26.25 402.41-23.9L402.41-23.9Q404.66-21.85 404.66-18.65ZM449.76-30L439.71 0 434.91 0 424.71-30 424.71 0 420.41 0 420.41-35.8 426.71-35.8 437.36-4.65 447.76-35.8 454.11-35.8 454.11 0 449.76 0 449.76-30ZM482.75-11.8L482.75-11.65 463.8-11.65Q463.85-8.35 465.2-6.4L465.2-6.4Q467.35-3.25 471.4-3.25L471.4-3.25Q476.4-3.25 478.15-8L478.15-8 482.25-8Q481.45-3.95 478.55-1.7 475.65 0.55 471.25 0.55L471.25 0.55Q465.4 0.55 462.3-3.45L462.3-3.45Q459.55-6.95 459.55-12.7L459.55-12.7Q459.55-19.35 463.15-23.05L463.15-23.05Q466.3-26.25 471.3-26.25L471.3-26.25Q474.95-26.25 477.73-24.5 480.5-22.75 481.7-19.7L481.7-19.7Q482.75-17.1 482.75-11.8L482.75-11.8ZM463.95-15L478.35-15Q478.35-18.35 476.38-20.43 474.4-22.5 471.3-22.5L471.3-22.5Q468.15-22.5 466.18-20.48 464.2-18.45 463.95-15L463.95-15ZM510.05-11.8L510.05-11.65 491.1-11.65Q491.15-8.35 492.5-6.4L492.5-6.4Q494.65-3.25 498.7-3.25L498.7-3.25Q503.7-3.25 505.45-8L505.45-8 509.55-8Q508.75-3.95 505.85-1.7 502.95 0.55 498.55 0.55L498.55 0.55Q492.7 0.55 489.6-3.45L489.6-3.45Q486.85-6.95 486.85-12.7L486.85-12.7Q486.85-19.35 490.45-23.05L490.45-23.05Q493.6-26.25 498.6-26.25L498.6-26.25Q502.25-26.25 505.03-24.5 507.8-22.75 509-19.7L509-19.7Q510.05-17.1 510.05-11.8L510.05-11.8ZM491.25-15L505.65-15Q505.65-18.35 503.68-20.43 501.7-22.5 498.6-22.5L498.6-22.5Q495.45-22.5 493.48-20.48 491.5-18.45 491.25-15L491.25-15ZM520.45-25.7L525.7-25.7 525.7-22.4 520.45-22.4 520.45-5.3Q520.45-4.4 521.07-3.78 521.7-3.15 522.7-3.15L522.7-3.15Q523.65-3.15 525.6-3.6L525.6-3.6 526.05 0Q522.95 0.55 521.35 0.55L521.35 0.55Q516.4 0.55 516.4-3.5L516.4-3.5 516.4-22.4 512.9-22.4 512.9-25.7 516.4-25.7 516.4-30.95 520.45-32.8 520.45-25.7ZM548.75-18.65L548.75-18.65 544.25-18.65Q544.04-22.5 539.09-22.5L539.09-22.5Q536.54-22.5 535.07-21.53 533.59-20.55 533.59-18.9L533.59-18.9Q533.59-16.4 538.34-15.3L538.34-15.3 542.29-14.4Q546.14-13.5 547.84-11.85 549.54-10.2 549.54-7.35L549.54-7.35Q549.54-3.7 546.69-1.58 543.84 0.55 539 0.55L539 0.55Q533.69 0.55 530.94-1.95L530.94-1.95Q528.64-4 528.5-7.4L528.5-7.4 533.14-7.4Q533.54-5.65 534.25-4.85L534.25-4.85Q535.59-3.25 539.29-3.25L539.29-3.25Q542.04-3.25 543.67-4.28 545.29-5.3 545.29-7L545.29-7Q545.29-9.55 541.34-10.5L541.34-10.5 537.5-11.4Q533.09-12.45 531.34-13.9L531.34-13.9Q529.34-15.55 529.34-18.65L529.34-18.65Q529.34-22.15 532.02-24.2 534.69-26.25 539.19-26.25L539.19-26.25Q543.89-26.25 546.5-23.9L546.5-23.9Q548.75-21.85 548.75-18.65ZM593.29-24.85L593.29-24.85 588.59-24.85Q587.84-28.45 585.99-30.1L585.99-30.1Q583.59-32.3 578.99-32.3L578.99-32.3Q573.39-32.3 570.34-27.9L570.34-27.9Q567.69-24.05 567.69-17.8L567.69-17.8Q567.69-10.75 571.24-6.85L571.24-6.85Q574.39-3.5 579.34-3.5L579.34-3.5Q585.39-3.5 587.69-7.95L587.69-7.95Q588.74-10 589.34-13.4L589.34-13.4 594.04-13.4Q592.39 0.55 579.39 0.55L579.39 0.55Q572.39 0.55 568.34-3.55L568.34-3.55Q563.14-8.8 563.14-17.65L563.14-17.65Q563.14-26.25 568.14-31.8L568.14-31.8Q572.24-36.35 579.44-36.35L579.44-36.35Q591.14-36.35 593.29-24.85ZM622.49-3.45L622.49-3.45 622.49-0.15Q620.79 0.45 619.84 0.45L619.84 0.45Q615.84 0.45 615.49-3.2L615.49-3.2Q612.74 0.55 606.74 0.55L606.74 0.55Q602.59 0.55 600.29-1.75L600.29-1.75Q598.29-3.75 598.29-6.9L598.29-6.9Q598.29-10.5 600.84-12.45L600.84-12.45Q602.29-13.55 606.89-14.6L606.89-14.6 615.29-16.5 615.34-18.65Q615.34-22.5 609.54-22.5L609.54-22.5Q603.99-22.5 603.59-18L603.59-18 599.44-18Q599.59-21.4 601.14-23.2L601.14-23.2Q603.79-26.25 609.74-26.25L609.74-26.25Q619.39-26.25 619.39-19.25L619.39-19.25 619.39-4.9Q619.39-3 621.04-3L621.04-3Q621.24-3 622.09-3.3L622.09-3.3Q622.39-3.4 622.49-3.45ZM615.34-8.65L615.34-13.15 608.74-11.45Q605.19-10.55 603.86-9.6 602.54-8.65 602.54-6.95L602.54-6.95Q602.54-3 607.64-3L607.64-3Q611.24-3 613.74-5.35L613.74-5.35Q615.34-6.8 615.34-8.65L615.34-8.65ZM626.93 0L626.93-25.7 630.73-25.7 630.73-21Q632.98-26.3 637.83-26.3L637.83-26.3Q638.43-26.3 639.28-26.15L639.28-26.15 639.28-21.95Q635.28-21.9 633.78-20.8L633.78-20.8Q631.03-18.8 631.03-13.35L631.03-13.35 631.03 0 626.93 0ZM643.13-25.7L647.18-25.7 647.18 0 643.13 0 643.13-25.7ZM645.23-35.75L645.23-35.75Q646.28-35.75 647.01-35.02 647.73-34.3 647.73-33.3L647.73-33.3Q647.73-32.25 647.01-31.53 646.28-30.8 645.23-30.8L645.23-30.8Q644.23-30.8 643.51-31.53 642.78-32.25 642.78-33.3L642.78-33.3Q642.78-34.3 643.51-35.02 644.23-35.75 645.23-35.75ZM654.23 0L654.23-25.7 658.03-25.7 658.03-21.35Q661.13-26.25 666.53-26.25L666.53-26.25Q670.28-26.25 672.48-24.38 674.68-22.5 674.68-19.35L674.68-19.35 674.68 0 670.63 0 670.63-17.7Q670.63-20 669.2-21.35 667.78-22.7 665.33-22.7L665.33-22.7Q662.13-22.7 660.23-20.35 658.33-18 658.33-14.1L658.33-14.1 658.33 0 654.23 0ZM698.28-21.85L698.28-25.7 702.08-25.7 702.08-4.2Q702.08 4.15 699.38 7.4L699.38 7.4Q696.68 10.7 690.53 10.7L690.53 10.7Q685.73 10.7 683.03 8.4L683.03 8.4Q680.63 6.35 680.33 2.95L680.33 2.95 684.53 2.95Q684.83 4.95 686.03 5.9L686.03 5.9Q687.78 7.25 690.73 7.25L690.73 7.25Q694.73 7.25 696.43 4.85L696.43 4.85Q697.88 2.8 697.88-2.15L697.88-2.15 697.88-3.8Q694.68 0.55 690.18 0.55L690.18 0.55Q685.78 0.55 682.73-2.75L682.73-2.75Q679.48-6.3 679.48-12.45L679.48-12.45Q679.48-19.05 682.88-22.95L682.88-22.95Q685.88-26.25 690.43-26.25L690.43-26.25Q695.33-26.25 698.28-21.85L698.28-21.85ZM690.88-22.5L690.88-22.5Q687.58-22.5 685.65-19.88 683.73-17.25 683.73-12.7L683.73-12.7Q683.73-7.95 685.93-5.45L685.93-5.45Q687.78-3.25 690.93-3.25L690.93-3.25Q694.23-3.25 696.05-5.75 697.88-8.25 697.88-12.7L697.88-12.7Q697.88-17.6 695.78-20.2L695.78-20.2Q693.93-22.5 690.88-22.5ZM743.02-16.3L723.52-16.3 723.52-4.05 744.62-4.05 744.62 0 718.97 0 718.97-35.8 743.77-35.8 743.77-31.75 723.52-31.75 723.52-20.35 743.02-20.35 743.02-16.3ZM770.32-25.7L761.67-13.3 770.57 0 765.82 0 759.37-9.9 752.82 0 748.17 0 757.27-13.1 748.62-25.7 753.32-25.7 759.52-16.4 765.72-25.7 770.32-25.7ZM794.97-17.1L794.97-17.1 790.87-17.1Q790.12-22.5 784.77-22.5L784.77-22.5Q781.42-22.5 779.52-19.85 777.62-17.2 777.62-12.5L777.62-12.5Q777.62-7.85 779.87-5.4L779.87-5.4Q781.77-3.25 784.97-3.25L784.97-3.25Q790.12-3.25 791.12-8.85L791.12-8.85 795.27-8.85Q794.87-4.05 791.82-1.6L791.82-1.6Q789.17 0.55 784.87 0.55L784.87 0.55Q779.22 0.55 776.07-3.45L776.07-3.45Q773.37-6.9 773.37-12.5L773.37-12.5Q773.37-19.2 776.92-23L776.92-23Q779.97-26.25 784.82-26.25L784.82-26.25Q790.42-26.25 793.22-22.5L793.22-22.5Q794.67-20.55 794.97-17.1ZM821.56-11.8L821.56-11.65 802.61-11.65Q802.66-8.35 804.01-6.4L804.01-6.4Q806.16-3.25 810.21-3.25L810.21-3.25Q815.21-3.25 816.96-8L816.96-8 821.06-8Q820.26-3.95 817.36-1.7 814.46 0.55 810.06 0.55L810.06 0.55Q804.21 0.55 801.11-3.45L801.11-3.45Q798.36-6.95 798.36-12.7L798.36-12.7Q798.36-19.35 801.96-23.05L801.96-23.05Q805.11-26.25 810.11-26.25L810.11-26.25Q813.76-26.25 816.54-24.5 819.31-22.75 820.51-19.7L820.51-19.7Q821.56-17.1 821.56-11.8L821.56-11.8ZM802.76-15L817.16-15Q817.16-18.35 815.19-20.43 813.21-22.5 810.11-22.5L810.11-22.5Q806.96-22.5 804.99-20.48 803.01-18.45 802.76-15L802.76-15ZM827.06-35.8L831.16-35.8 831.16 0 827.06 0 827.06-35.8ZM837.96-35.8L842.06-35.8 842.06 0 837.96 0 837.96-35.8ZM870.66-11.8L870.66-11.65 851.71-11.65Q851.76-8.35 853.11-6.4L853.11-6.4Q855.26-3.25 859.31-3.25L859.31-3.25Q864.31-3.25 866.06-8L866.06-8 870.16-8Q869.36-3.95 866.46-1.7 863.56 0.55 859.16 0.55L859.16 0.55Q853.31 0.55 850.21-3.45L850.21-3.45Q847.46-6.95 847.46-12.7L847.46-12.7Q847.46-19.35 851.06-23.05L851.06-23.05Q854.21-26.25 859.21-26.25L859.21-26.25Q862.86-26.25 865.63-24.5 868.41-22.75 869.61-19.7L869.61-19.7Q870.66-17.1 870.66-11.8L870.66-11.8ZM851.86-15L866.26-15Q866.26-18.35 864.28-20.43 862.31-22.5 859.21-22.5L859.21-22.5Q856.06-22.5 854.08-20.48 852.11-18.45 851.86-15L851.86-15ZM876.25 0L876.25-25.7 880.05-25.7 880.05-21.35Q883.15-26.25 888.55-26.25L888.55-26.25Q892.3-26.25 894.5-24.38 896.7-22.5 896.7-19.35L896.7-19.35 896.7 0 892.65 0 892.65-17.7Q892.65-20 891.23-21.35 889.8-22.7 887.35-22.7L887.35-22.7Q884.15-22.7 882.25-20.35 880.35-18 880.35-14.1L880.35-14.1 880.35 0 876.25 0ZM923.2-17.1L923.2-17.1 919.1-17.1Q918.35-22.5 913-22.5L913-22.5Q909.65-22.5 907.75-19.85 905.85-17.2 905.85-12.5L905.85-12.5Q905.85-7.85 908.1-5.4L908.1-5.4Q910-3.25 913.2-3.25L913.2-3.25Q918.35-3.25 919.35-8.85L919.35-8.85 923.5-8.85Q923.1-4.05 920.05-1.6L920.05-1.6Q917.4 0.55 913.1 0.55L913.1 0.55Q907.45 0.55 904.3-3.45L904.3-3.45Q901.6-6.9 901.6-12.5L901.6-12.5Q901.6-19.2 905.15-23L905.15-23Q908.2-26.25 913.05-26.25L913.05-26.25Q918.65-26.25 921.45-22.5L921.45-22.5Q922.9-20.55 923.2-17.1ZM949.8-11.8L949.8-11.65 930.85-11.65Q930.9-8.35 932.25-6.4L932.25-6.4Q934.4-3.25 938.45-3.25L938.45-3.25Q943.45-3.25 945.2-8L945.2-8 949.3-8Q948.5-3.95 945.6-1.7 942.7 0.55 938.3 0.55L938.3 0.55Q932.45 0.55 929.35-3.45L929.35-3.45Q926.6-6.95 926.6-12.7L926.6-12.7Q926.6-19.35 930.2-23.05L930.2-23.05Q933.35-26.25 938.35-26.25L938.35-26.25Q942-26.25 944.77-24.5 947.55-22.75 948.75-19.7L948.75-19.7Q949.8-17.1 949.8-11.8L949.8-11.8ZM931-15L945.4-15Q945.4-18.35 943.42-20.43 941.45-22.5 938.35-22.5L938.35-22.5Q935.2-22.5 933.22-20.48 931.25-18.45 931-15L931-15Z" opacity="1" transform="matrix(1,0,0,1,0,0)" fill="#636365" class="slogan-text-1" data-fill-palette-color="secondary" id="text-1"></path></svg></g></svg></g></svg></g></svg></g><g transform="matrix(1,0,0,1,0,0.4632775974815928)"><svg viewBox="0 0 213.00119424441326 185.31103899263954" height="185.31103899263954" width="213.00119424441326"><g><svg xmlns="http://www.w3.org/2000/svg" xmlns:xlink="http://www.w3.org/1999/xlink" version="1.1" x="0" y="0" viewBox="0 0 100 87" enable-background="new 0 0 100 87.5" xml:space="preserve" id="icon-0" width="213.00119424441326" height="185.31103899263954" class="icon-icon-0" data-fill-palette-color="accent"><polygon points="12.5,87.5 43.75,87.5 43.75,62.5 56.25,62.5 56.25,87.5 87.5,87.5 87.5,50 100,50 50,0 0,50 12.5,50 " fill="#1f85de" data-fill-palette-color="accent"></polygon></svg></g></svg></g></svg></g><defs></defs></svg><rect width="395.52" height="107.63618094441814" fill="none" stroke="none" visibility="hidden"></rect></g></svg></g></svg>